<svg width="89" height="89" viewBox="0 0 89 89" fill="none" xmlns="http://www.w3.org/2000/svg">
<rect width="89" height="89" fill="#831243"/>
<path d="M0.676 39.6475C0.676 38.1742 1.03133 37.0475 1.742 36.2675C2.45267 35.4702 3.50133 35.0715 4.888 35.0715C6.27467 35.0715 7.32333 35.4702 8.034 36.2675C8.74467 37.0475 9.1 38.1742 9.1 39.6475V40.2195H6.396V39.4655C6.396 38.2695 5.91933 37.6715 4.966 37.6715C4.01267 37.6715 3.536 38.2695 3.536 39.4655C3.536 40.1415 3.72667 40.7828 4.108 41.3895C4.48933 41.9788 4.94867 42.5162 5.486 43.0015C6.04067 43.4868 6.59533 43.9982 7.15 44.5355C7.70467 45.0555 8.17267 45.7142 8.554 46.5115C8.93533 47.2915 9.126 48.1582 9.126 49.1115C9.126 50.5848 8.762 51.7202 8.034 52.5175C7.306 53.2975 6.24867 53.6875 4.862 53.6875C3.47533 53.6875 2.418 53.2975 1.69 52.5175C0.962 51.7202 0.598 50.5848 0.598 49.1115V47.9935H3.302V49.2935C3.302 50.4722 3.796 51.0615 4.784 51.0615C5.772 51.0615 6.266 50.4722 6.266 49.2935C6.266 48.6175 6.07533 47.9848 5.694 47.3955C5.31267 46.7888 4.84467 46.2428 4.29 45.7575C3.75267 45.2722 3.20667 44.7695 2.652 44.2495C2.09733 43.7122 1.62933 43.0535 1.248 42.2735C0.866667 41.4762 0.676 40.6008 0.676 39.6475ZM11.1546 35.2795H14.0146V49.3195C14.0146 50.4982 14.5086 51.0875 15.4966 51.0875C16.4846 51.0875 16.9786 50.4982 16.9786 49.3195V35.2795H19.6826V49.1375C19.6826 50.6108 19.3186 51.7462 18.5906 52.5435C17.8626 53.3235 16.8053 53.7135 15.4186 53.7135C14.0319 53.7135 12.9746 53.3235 12.2466 52.5435C11.5186 51.7462 11.1546 50.6108 11.1546 49.1375V35.2795ZM26.376 35.2795C29.2187 35.2795 30.64 36.7788 30.64 39.7775V42.1435C30.64 45.1422 29.2187 46.6415 26.376 46.6415H25.024V53.4795H22.164V35.2795H26.376ZM26.376 37.8795H25.024V44.0415H26.376C26.844 44.0415 27.1907 43.9115 27.416 43.6515C27.6587 43.3915 27.78 42.9495 27.78 42.3255V39.5955C27.78 38.9715 27.6587 38.5295 27.416 38.2695C27.1907 38.0095 26.844 37.8795 26.376 37.8795ZM35.3448 37.8795V42.9495H39.2708V45.5495H35.3448V50.8795H40.2848V53.4795H32.4848V35.2795H40.2848V37.8795H35.3448ZM51.469 53.4795H48.557C48.3837 52.9595 48.297 52.2142 48.297 51.2435V48.3835C48.297 47.5515 48.1497 46.9622 47.855 46.6155C47.5604 46.2515 47.0837 46.0695 46.425 46.0695H45.437V53.4795H42.577V35.2795H46.893C48.3664 35.2795 49.441 35.6262 50.117 36.3195C50.793 36.9955 51.131 38.0442 51.131 39.4655V40.8955C51.131 42.7675 50.507 43.9982 49.259 44.5875C50.5244 45.1248 51.157 46.4162 51.157 48.4615V51.2695C51.157 52.2575 51.261 52.9942 51.469 53.4795ZM46.815 37.8795H45.437V43.4695H46.555C47.127 43.4695 47.5517 43.3222 47.829 43.0275C48.1237 42.7328 48.271 42.2388 48.271 41.5455V39.7515C48.271 38.5035 47.7857 37.8795 46.815 37.8795ZM57.848 45.9395V43.3395H61.852V49.1115C61.852 50.5848 61.488 51.7202 60.76 52.5175C60.032 53.2975 58.9746 53.6875 57.588 53.6875C56.2013 53.6875 55.144 53.2975 54.416 52.5175C53.688 51.7202 53.324 50.5848 53.324 49.1115V39.6475C53.324 38.1742 53.688 37.0475 54.416 36.2675C55.144 35.4702 56.2013 35.0715 57.588 35.0715C58.9746 35.0715 60.032 35.4702 60.76 36.2675C61.488 37.0475 61.852 38.1742 61.852 39.6475V41.4155H59.148V39.4655C59.148 38.2695 58.654 37.6715 57.666 37.6715C56.678 37.6715 56.184 38.2695 56.184 39.4655V49.2935C56.184 50.4722 56.678 51.0615 57.666 51.0615C58.654 51.0615 59.148 50.4722 59.148 49.2935V45.9395H57.848ZM66.506 53.4795V47.4475L62.892 35.2795H65.882L68.066 43.5735L70.25 35.2795H72.98L69.366 47.4475V53.4795H66.506ZM78.6086 35.2795L80.7146 48.2015L82.6646 35.2795H86.6426V53.4795H83.9386V40.4275L81.9626 53.4795H79.2586L77.1266 40.6095V53.4795H74.6306V35.2795H78.6086Z" fill="white"/>
</svg>
